<svg width="459" height="363" viewBox="0 0 459 363" fill="none" xmlns="http://www.w3.org/2000/svg">
<mask id="path-1-inside-1_911_1710" fill="white">
<path d="M441.982 113.862C440.523 239.017 343.489 340 224 340C133.964 340 56.678 282.663 23.4229 200.854C33.0405 208.553 44.0355 211.868 55.25 212.516C68.499 213.28 82.1812 210.343 94.6445 206.789C100.92 205 107.085 202.993 112.83 201.135C117.634 199.581 122.119 198.141 126.316 196.938C149.256 205.632 179.207 218.207 210.539 228.695C243.197 239.627 278.544 248.732 311.612 249.454C344.773 250.178 376.536 242.467 400.711 218.785C422.8 197.147 437.382 163.311 441.982 113.862ZM124.176 177.859C125.438 178.186 126.71 178.503 127.991 178.814C127.709 178.896 127.428 178.98 127.146 179.061C126.149 178.669 125.16 178.267 124.176 177.859Z"/>
</mask>
<path d="M441.982 113.862C440.523 239.017 343.489 340 224 340C133.964 340 56.678 282.663 23.4229 200.854C33.0405 208.553 44.0355 211.868 55.25 212.516C68.499 213.28 82.1812 210.343 94.6445 206.789C100.92 205 107.085 202.993 112.83 201.135C117.634 199.581 122.119 198.141 126.316 196.938C149.256 205.632 179.207 218.207 210.539 228.695C243.197 239.627 278.544 248.732 311.612 249.454C344.773 250.178 376.536 242.467 400.711 218.785C422.8 197.147 437.382 163.311 441.982 113.862ZM124.176 177.859C125.438 178.186 126.71 178.503 127.991 178.814C127.709 178.896 127.428 178.98 127.146 179.061C126.149 178.669 125.16 178.267 124.176 177.859Z" fill="#6B001B"/>
<path d="M441.982 113.862L458.981 114.06C459.088 104.94 451.978 97.3615 442.87 96.8855C433.761 96.4095 425.9 103.206 425.056 112.288L441.982 113.862ZM224 340L224 357L224 357L224 340ZM23.4229 200.854L34.0473 187.582C28.0062 182.746 19.4611 182.6 13.2583 187.227C7.05541 191.854 4.76016 200.086 7.67425 207.255L23.4229 200.854ZM55.25 212.516L54.2702 229.487L54.2703 229.487L55.25 212.516ZM94.6445 206.789L99.3058 223.138L99.3058 223.138L94.6445 206.789ZM112.83 201.135L107.599 184.96L112.83 201.135ZM126.316 196.938L132.341 181.042C128.913 179.743 125.157 179.586 121.634 180.596L126.316 196.938ZM210.539 228.695L205.143 244.816L205.143 244.816L210.539 228.695ZM311.612 249.454L311.241 266.45L311.241 266.45L311.612 249.454ZM400.711 218.785L412.607 230.929L412.607 230.929L400.711 218.785ZM124.176 177.859L128.434 161.401C119.788 159.164 110.885 163.999 108.053 172.468C105.221 180.938 109.426 190.155 117.678 193.569L124.176 177.859ZM127.991 178.814L132.734 195.14C140.13 192.991 145.157 186.139 144.987 178.439C144.817 170.739 139.491 164.115 132.008 162.296L127.991 178.814ZM127.146 179.061L120.933 194.885C124.403 196.247 128.225 196.431 131.81 195.408L127.146 179.061ZM441.982 113.862L424.984 113.664C423.624 230.304 333.4 323 224 323L224 340L224 357C353.577 357 457.423 247.729 458.981 114.06L441.982 113.862ZM224 340V323C141.502 323 70.064 270.45 39.1714 194.452L23.4229 200.854L7.67425 207.255C43.2919 294.877 126.426 357 224 357V340ZM23.4229 200.854L12.7984 214.125C25.6989 224.452 40.2788 228.68 54.2702 229.487L55.25 212.516L56.2298 195.544C47.7922 195.057 40.3822 192.654 34.0473 187.582L23.4229 200.854ZM55.25 212.516L54.2703 229.487C70.4273 230.42 86.3294 226.837 99.3058 223.138L94.6445 206.789L89.9833 190.441C78.033 193.848 66.5707 196.141 56.2297 195.544L55.25 212.516ZM94.6445 206.789L99.3058 223.138C105.924 221.251 112.39 219.144 118.061 217.31L112.83 201.135L107.599 184.96C101.781 186.841 95.9167 188.749 89.9832 190.441L94.6445 206.789ZM112.83 201.135L118.061 217.31C122.896 215.746 127.119 214.393 130.999 213.281L126.316 196.938L121.634 180.596C117.12 181.889 112.372 183.416 107.599 184.96L112.83 201.135ZM126.316 196.938L120.292 212.835C142.436 221.227 173.425 234.199 205.143 244.816L210.539 228.695L215.935 212.575C184.989 202.216 156.075 190.037 132.341 181.042L126.316 196.938ZM210.539 228.695L205.143 244.816C238.352 255.933 275.616 265.673 311.241 266.45L311.612 249.454L311.983 232.458C281.472 231.792 248.041 223.322 215.935 212.575L210.539 228.695ZM311.612 249.454L311.241 266.45C347.139 267.233 384.049 258.905 412.607 230.929L400.711 218.785L388.815 206.641C369.023 226.029 342.407 233.122 311.983 232.458L311.612 249.454ZM400.711 218.785L412.607 230.929C438.543 205.523 454.085 167.29 458.909 115.437L441.982 113.862L425.056 112.288C420.679 159.331 407.056 188.771 388.815 206.641L400.711 218.785ZM124.176 177.859L119.917 194.317C121.277 194.669 122.633 195.007 123.975 195.333L127.991 178.814L132.008 162.296C130.788 161.999 129.598 161.703 128.434 161.401L124.176 177.859ZM127.991 178.814L123.249 162.489C122.817 162.615 122.727 162.643 122.481 162.713L127.146 179.061L131.81 195.408C132.128 195.317 132.601 195.178 132.734 195.14L127.991 178.814ZM127.146 179.061L133.358 163.236C132.492 162.896 131.605 162.536 130.673 162.15L124.176 177.859L117.678 193.569C118.716 193.998 119.807 194.443 120.933 194.885L127.146 179.061Z" fill="black" mask="url(#path-1-inside-1_911_1710)"/>
<path d="M20.1684 160.401C36.0433 260.917 98.8851 222.393 138.655 210.532C48.7335 173.184 4.29344 59.8841 20.1684 160.401Z" fill="#E21068"/>
<path d="M434.405 116.393C422.994 354.433 229.99 248.467 138.655 210.532C291.15 165.047 445.816 -121.646 434.405 116.393Z" fill="#BE0332"/>
<path d="M138.655 210.532C229.99 248.467 422.994 354.433 434.405 116.393C445.816 -121.646 291.15 165.047 138.655 210.532ZM138.655 210.532C98.8851 222.393 36.0433 260.917 20.1684 160.401C4.29344 59.8841 48.7335 173.184 138.655 210.532Z" stroke="#0C0C0C" stroke-width="17"/>
</svg>
