<svg width="80" height="80" viewBox="0 0 80 80" xmlns="http://www.w3.org/2000/svg">
  <defs>
    <!-- Gradients iridescents -->
    <linearGradient id="bowlGradient" x1="0%" y1="0%" x2="100%" y2="100%">
      <stop offset="0%" style="stop-color:#FF69B4;stop-opacity:1" />
      <stop offset="25%" style="stop-color:#8A2BE2;stop-opacity:1" />
      <stop offset="50%" style="stop-color:#4169E1;stop-opacity:1" />
      <stop offset="75%" style="stop-color:#00CED1;stop-opacity:1" />
      <stop offset="100%" style="stop-color:#FF1493;stop-opacity:1" />
    </linearGradient>
    
    <linearGradient id="stemGradient" x1="0%" y1="0%" x2="100%" y2="100%">
      <stop offset="0%" style="stop-color:#FF69B4;stop-opacity:0.8" />
      <stop offset="50%" style="stop-color:#8A2BE2;stop-opacity:0.8" />
      <stop offset="100%" style="stop-color:#4169E1;stop-opacity:0.8" />
    </linearGradient>
    
    <radialGradient id="reflectionGradient" cx="30%" cy="30%" r="70%">
      <stop offset="0%" style="stop-color:#FFFFFF;stop-opacity:0.9" />
      <stop offset="50%" style="stop-color:#E6E6FA;stop-opacity:0.5" />
      <stop offset="100%" style="stop-color:transparent;stop-opacity:0" />
    </radialGradient>
  </defs>
  
  <!-- Fond noir -->
  <rect width="80" height="80" fill="#000000"/>
  
  <!-- Verre de vin -->
  <g>
    <!-- Tige du verre -->
    <rect x="38" y="55" width="4" height="15" fill="url(#stemGradient)" rx="2"/>
    
    <!-- Base du verre -->
    <ellipse cx="40" cy="70" rx="8" ry="2" fill="url(#stemGradient)"/>
    
    <!-- Coupe du verre -->
    <path d="M 25 25 Q 40 15 55 25 L 52 45 Q 40 50 28 45 Z" fill="url(#bowlGradient)"/>
    
    <!-- Reflets iridescents dans la coupe -->
    <ellipse cx="35" cy="30" rx="8" ry="12" fill="url(#reflectionGradient)"/>
    
    <!-- Reflets supplémentaires -->
    <path d="M 30 20 Q 35 18 40 20 Q 45 22 50 20" stroke="#FFFFFF" stroke-width="1" fill="none" opacity="0.7"/>
    <path d="M 28 25 Q 33 23 38 25 Q 43 27 48 25" stroke="#E6E6FA" stroke-width="0.5" fill="none" opacity="0.6"/>
    
    <!-- Reflets colorés -->
    <ellipse cx="32" cy="35" rx="3" ry="5" fill="#FF69B4" opacity="0.4"/>
    <ellipse cx="45" cy="32" rx="2" ry="4" fill="#8A2BE2" opacity="0.4"/>
    <ellipse cx="38" cy="28" rx="2" ry="3" fill="#4169E1" opacity="0.4"/>
  </g>
</svg> 